<?xml version="1.0" encoding="UTF-8" standalone="no"?>
<!DOCTYPE svg PUBLIC "-//W3C//DTD SVG 1.1//EN"
 "http://www.w3.org/Graphics/SVG/1.1/DTD/svg11.dtd">
<!-- Generated by graphviz version 2.43.0 (0)
 -->
<!-- Title: %3 Pages: 1 -->
<svg width="475pt" height="695pt"
 viewBox="0.00 0.00 475.22 694.70" xmlns="http://www.w3.org/2000/svg" xmlns:xlink="http://www.w3.org/1999/xlink">
<g id="graph0" class="graph" transform="scale(1 1) rotate(0) translate(4 690.7)">
<title>%3</title>
<polygon fill="#3f3f3f" stroke="transparent" points="-4,4 -4,-690.7 471.22,-690.7 471.22,4 -4,4"/>
<text text-anchor="middle" x="233.61" y="-9.2" font-family="Times,serif" font-size="16.00" fill="white">Network Map</text>
<!-- INTERNET -->
<g id="node1" class="node">
<title>INTERNET</title>
<ellipse fill="#006699" stroke="#006699" cx="197.22" cy="-596.19" rx="90.52" ry="90.52"/>
<text text-anchor="middle" x="197.22" y="-592.49" font-family="Helvetica,sans-Serif" font-size="14.00" fill="white">INTERNET</text>
</g>
<!-- R2 -->
<g id="node2" class="node">
<title>R2</title>
<ellipse fill="#006699" stroke="#006699" cx="219.22" cy="-240.34" rx="54.39" ry="54.39"/>
<text text-anchor="middle" x="219.22" y="-236.64" font-family="Helvetica,sans-Serif" font-size="14.00" fill="white">R2</text>
</g>
<!-- R2&#45;&#45;INTERNET -->
<g id="edge4" class="edge">
<title>R2&#45;&#45;INTERNET</title>
<path fill="none" stroke="green" stroke-dasharray="5,2" d="M211.7,-294.38C209.62,-310.83 207.56,-329.03 206.22,-345.79 201.98,-398.7 199.73,-458.08 198.55,-505.62"/>
<text text-anchor="middle" x="256.22" y="-396.54" font-family="Courier,monospace" font-size="14.00" fill="white"> &#160;&#160;&#160;&#160;&#160;&#160;&#160;&#160;&#160;&#160;&#160;</text>
<text text-anchor="middle" x="124.05" y="-494.42" font-family="Courier,monospace" font-size="14.00" fill="white">GigabitEthernet0/2</text>
<text text-anchor="middle" x="137.2" y="-298.18" font-family="Courier,monospace" font-size="14.00" fill="white">GigabitEthernet0/0</text>
</g>
<!-- R3 -->
<g id="node3" class="node">
<title>R3</title>
<ellipse fill="#006699" stroke="#006699" cx="369.22" cy="-400.24" rx="54.39" ry="54.39"/>
<text text-anchor="middle" x="369.22" y="-396.54" font-family="Helvetica,sans-Serif" font-size="14.00" fill="white">R3</text>
</g>
<!-- R2&#45;&#45;R3 -->
<g id="edge5" class="edge">
<title>R2&#45;&#45;R3</title>
<path fill="none" stroke="green" stroke-dasharray="5,2" d="M229.18,-294.1C233.61,-306.4 240,-318.58 249.22,-327.79 266.52,-345.08 279.75,-334.07 301.22,-345.79 310.57,-350.9 319.97,-357.28 328.67,-363.85"/>
<text text-anchor="middle" x="299.22" y="-316.59" font-family="Courier,monospace" font-size="14.00" fill="white"> &#160;&#160;&#160;&#160;&#160;&#160;&#160;&#160;&#160;&#160;&#160;</text>
<text text-anchor="middle" x="254.17" y="-352.65" font-family="Courier,monospace" font-size="14.00" fill="white">GigabitEthernet0/1</text>
<text text-anchor="middle" x="303.68" y="-297.9" font-family="Courier,monospace" font-size="14.00" fill="white">GigabitEthernet0/2</text>
</g>
<!-- R3&#45;&#45;INTERNET -->
<g id="edge6" class="edge">
<title>R3&#45;&#45;INTERNET</title>
<path fill="none" stroke="green" stroke-dasharray="5,2" d="M333.58,-441.42C311.44,-466.39 282.42,-499.11 256.85,-527.95"/>
<text text-anchor="middle" x="353.22" y="-476.48" font-family="Courier,monospace" font-size="14.00" fill="white"> &#160;&#160;&#160;&#160;&#160;&#160;&#160;&#160;&#160;&#160;&#160;</text>
<text text-anchor="middle" x="331.35" y="-516.75" font-family="Courier,monospace" font-size="14.00" fill="white">GigabitEthernet0/3</text>
<text text-anchor="middle" x="259.08" y="-445.22" font-family="Courier,monospace" font-size="14.00" fill="white">GigabitEthernet0/0</text>
</g>
<!-- R1 -->
<g id="node4" class="node">
<title>R1</title>
<ellipse fill="#006699" stroke="#006699" cx="219.22" cy="-80.45" rx="54.39" ry="54.39"/>
<text text-anchor="middle" x="219.22" y="-76.75" font-family="Helvetica,sans-Serif" font-size="14.00" fill="white">R1</text>
</g>
<!-- R1&#45;&#45;INTERNET -->
<g id="edge1" class="edge">
<title>R1&#45;&#45;INTERNET</title>
<path fill="none" stroke="green" stroke-dasharray="5,2" d="M188.2,-125.33C158.86,-170.01 117.3,-242.52 103.22,-312.79 88.85,-384.48 119.08,-463.2 149,-519.27"/>
<text text-anchor="middle" x="153.22" y="-316.59" font-family="Courier,monospace" font-size="14.00" fill="white"> &#160;&#160;&#160;&#160;&#160;&#160;&#160;&#160;&#160;&#160;&#160;</text>
<text text-anchor="middle" x="74.5" y="-523.07" font-family="Courier,monospace" font-size="14.00" fill="white">GigabitEthernet0/1</text>
<text text-anchor="middle" x="113.7" y="-129.13" font-family="Courier,monospace" font-size="14.00" fill="white">GigabitEthernet0/0</text>
</g>
<!-- R1&#45;&#45;R2 -->
<g id="edge2" class="edge">
<title>R1&#45;&#45;R2</title>
<path fill="none" stroke="green" stroke-dasharray="5,2" d="M219.22,-134.9C219.22,-151.28 219.22,-169.29 219.22,-185.67"/>
<text text-anchor="middle" x="269.22" y="-156.69" font-family="Courier,monospace" font-size="14.00" fill="white"> &#160;&#160;&#160;&#160;&#160;&#160;&#160;&#160;&#160;&#160;&#160;</text>
<text text-anchor="middle" x="144.72" y="-174.47" font-family="Courier,monospace" font-size="14.00" fill="white">GigabitEthernet0/1</text>
<text text-anchor="middle" x="293.72" y="-138.7" font-family="Courier,monospace" font-size="14.00" fill="white">GigabitEthernet0/1</text>
</g>
<!-- R1&#45;&#45;R3 -->
<g id="edge3" class="edge">
<title>R1&#45;&#45;R3</title>
<path fill="none" stroke="green" stroke-dasharray="5,2" d="M268.22,-104.31C288.26,-116.08 309.84,-132.33 323.22,-152.89 361.06,-211.06 369.6,-292.38 370.67,-345.41"/>
<text text-anchor="middle" x="417.22" y="-236.64" font-family="Courier,monospace" font-size="14.00" fill="white"> &#160;&#160;&#160;&#160;&#160;&#160;&#160;&#160;&#160;&#160;&#160;</text>
<text text-anchor="middle" x="296.17" y="-334.21" font-family="Courier,monospace" font-size="14.00" fill="white">GigabitEthernet0/2</text>
<text text-anchor="middle" x="342.72" y="-93.11" font-family="Courier,monospace" font-size="14.00" fill="white">GigabitEthernet0/2</text>
</g>
</g>
</svg>
