<?xml version="1.0" encoding="UTF-8" standalone="no"?>
<!DOCTYPE svg PUBLIC "-//W3C//DTD SVG 1.1//EN"
 "http://www.w3.org/Graphics/SVG/1.1/DTD/svg11.dtd">
<!-- Generated by graphviz version 2.46.0 (20210118.1747)
 -->
<!-- Pages: 1 -->
<svg width="548pt" height="655pt"
 viewBox="0.00 0.00 548.00 655.10" xmlns="http://www.w3.org/2000/svg" xmlns:xlink="http://www.w3.org/1999/xlink">
<g id="graph0" class="graph" transform="scale(1 1) rotate(0) translate(4 651.1)">
<polygon fill="#3f3f3f" stroke="transparent" points="-4,4 -4,-651.1 544,-651.1 544,4 -4,4"/>
<text text-anchor="middle" x="270" y="-9.2" font-family="Times New Roman,serif" font-size="16.00" fill="white">Network Map</text>
<!-- R3 -->
<g id="node1" class="node">
<title>R3</title>
<ellipse fill="#006699" stroke="#006699" cx="175" cy="-400.24" rx="54.39" ry="54.39"/>
<text text-anchor="middle" x="175" y="-396.54" font-family="Helvetica,sans-Serif" font-size="14.00" fill="white">R3</text>
</g>
<!-- Switch -->
<g id="node4" class="node">
<title>Switch</title>
<ellipse fill="#006699" stroke="#006699" cx="290" cy="-576.39" rx="70.92" ry="70.92"/>
<text text-anchor="middle" x="290" y="-572.69" font-family="Helvetica,sans-Serif" font-size="14.00" fill="white">Switch</text>
</g>
<!-- R3&#45;&#45;Switch -->
<g id="edge6" class="edge">
<title>R3&#45;&#45;Switch</title>
<path fill="none" stroke="green" stroke-dasharray="5,2" d="M168.24,-454.67C168.8,-466.02 170.97,-477.61 176,-487.68 187.27,-510.25 207.39,-528.66 227.62,-542.68"/>
<text text-anchor="middle" x="226" y="-476.48" font-family="Courier,monospace" font-size="14.00" fill="white"> &#160;&#160;&#160;&#160;&#160;&#160;&#160;&#160;&#160;&#160;&#160;</text>
<text text-anchor="middle" x="153.12" y="-531.48" font-family="Courier,monospace" font-size="14.00" fill="white">GigabitEthernet0/3</text>
<text text-anchor="middle" x="93.74" y="-458.47" font-family="Courier,monospace" font-size="14.00" fill="white">GigabitEthernet0/0</text>
</g>
<!-- R2 -->
<g id="node2" class="node">
<title>R2</title>
<ellipse fill="#006699" stroke="#006699" cx="297" cy="-240.34" rx="54.39" ry="54.39"/>
<text text-anchor="middle" x="297" y="-236.64" font-family="Helvetica,sans-Serif" font-size="14.00" fill="white">R2</text>
</g>
<!-- R2&#45;&#45;R3 -->
<g id="edge5" class="edge">
<title>R2&#45;&#45;R3</title>
<path fill="none" stroke="green" stroke-dasharray="5,2" d="M256.47,-276.78C247.77,-283.33 238.37,-289.71 229,-294.79 207.13,-306.64 190.6,-292.65 176,-312.79 169.03,-322.39 166.27,-334.29 165.79,-346.17"/>
<text text-anchor="middle" x="226" y="-316.59" font-family="Courier,monospace" font-size="14.00" fill="white"> &#160;&#160;&#160;&#160;&#160;&#160;&#160;&#160;&#160;&#160;&#160;</text>
<text text-anchor="middle" x="91.29" y="-334.97" font-family="Courier,monospace" font-size="14.00" fill="white">GigabitEthernet0/1</text>
<text text-anchor="middle" x="181.97" y="-265.58" font-family="Courier,monospace" font-size="14.00" fill="white">GigabitEthernet0/2</text>
</g>
<!-- R2&#45;&#45;Switch -->
<g id="edge4" class="edge">
<title>R2&#45;&#45;Switch</title>
<path fill="none" stroke="green" stroke-dasharray="5,2" d="M295.87,-295.01C294.67,-352.19 292.77,-442.91 291.46,-505.6"/>
<text text-anchor="middle" x="344" y="-396.54" font-family="Courier,monospace" font-size="14.00" fill="white"> &#160;&#160;&#160;&#160;&#160;&#160;&#160;&#160;&#160;&#160;&#160;</text>
<text text-anchor="middle" x="216.96" y="-494.4" font-family="Courier,monospace" font-size="14.00" fill="white">GigabitEthernet0/2</text>
<text text-anchor="middle" x="221.37" y="-298.81" font-family="Courier,monospace" font-size="14.00" fill="white">GigabitEthernet0/0</text>
</g>
<!-- R1 -->
<g id="node3" class="node">
<title>R1</title>
<ellipse fill="#006699" stroke="#006699" cx="297" cy="-80.45" rx="54.39" ry="54.39"/>
<text text-anchor="middle" x="297" y="-76.75" font-family="Helvetica,sans-Serif" font-size="14.00" fill="white">R1</text>
</g>
<!-- R1&#45;&#45;R3 -->
<g id="edge3" class="edge">
<title>R1&#45;&#45;R3</title>
<path fill="none" stroke="green" stroke-dasharray="5,2" d="M245.62,-98.88C207.25,-114.92 157.54,-142.84 134,-185.89 105.4,-238.18 127.72,-307.19 149,-352.37"/>
<text text-anchor="middle" x="184" y="-236.64" font-family="Courier,monospace" font-size="14.00" fill="white"> &#160;&#160;&#160;&#160;&#160;&#160;&#160;&#160;&#160;&#160;&#160;</text>
<text text-anchor="middle" x="74.5" y="-356.17" font-family="Courier,monospace" font-size="14.00" fill="white">GigabitEthernet0/2</text>
<text text-anchor="middle" x="171.12" y="-87.68" font-family="Courier,monospace" font-size="14.00" fill="white">GigabitEthernet0/2</text>
</g>
<!-- R1&#45;&#45;R2 -->
<g id="edge2" class="edge">
<title>R1&#45;&#45;R2</title>
<path fill="none" stroke="green" stroke-dasharray="5,2" d="M297,-134.9C297,-151.28 297,-169.29 297,-185.67"/>
<text text-anchor="middle" x="347" y="-156.69" font-family="Courier,monospace" font-size="14.00" fill="white"> &#160;&#160;&#160;&#160;&#160;&#160;&#160;&#160;&#160;&#160;&#160;</text>
<text text-anchor="middle" x="222.5" y="-174.47" font-family="Courier,monospace" font-size="14.00" fill="white">GigabitEthernet0/1</text>
<text text-anchor="middle" x="222.5" y="-138.7" font-family="Courier,monospace" font-size="14.00" fill="white">GigabitEthernet0/1</text>
</g>
<!-- R1&#45;&#45;Switch -->
<g id="edge1" class="edge">
<title>R1&#45;&#45;Switch</title>
<path fill="none" stroke="green" stroke-dasharray="5,2" d="M346.76,-102.61C367.47,-114.21 389.37,-130.8 401,-152.89 463.46,-271.6 446.52,-329.63 398,-454.68 386.75,-483.65 365.1,-510.1 344.11,-530.81"/>
<text text-anchor="middle" x="490" y="-316.59" font-family="Courier,monospace" font-size="14.00" fill="white"> &#160;&#160;&#160;&#160;&#160;&#160;&#160;&#160;&#160;&#160;&#160;</text>
<text text-anchor="middle" x="418.61" y="-519.61" font-family="Courier,monospace" font-size="14.00" fill="white">GigabitEthernet0/1</text>
<text text-anchor="middle" x="421.26" y="-91.41" font-family="Courier,monospace" font-size="14.00" fill="white">GigabitEthernet0/0</text>
</g>
</g>
</svg>
