<?xml version="1.0" encoding="UTF-8" standalone="no"?>
<!DOCTYPE svg PUBLIC "-//W3C//DTD SVG 1.1//EN"
 "http://www.w3.org/Graphics/SVG/1.1/DTD/svg11.dtd">
<!-- Generated by graphviz version 2.43.0 (0)
 -->
<!-- Title: %3 Pages: 1 -->
<svg width="451pt" height="695pt"
 viewBox="0.00 0.00 451.24 694.70" xmlns="http://www.w3.org/2000/svg" xmlns:xlink="http://www.w3.org/1999/xlink">
<g id="graph0" class="graph" transform="scale(1 1) rotate(0) translate(4 690.7)">
<title>%3</title>
<polygon fill="#3f3f3f" stroke="transparent" points="-4,4 -4,-690.7 447.24,-690.7 447.24,4 -4,4"/>
<text text-anchor="middle" x="221.62" y="-9.2" font-family="Times,serif" font-size="16.00" fill="white">Network Map</text>
<!-- INTERNET -->
<g id="node1" class="node">
<title>INTERNET</title>
<ellipse fill="#006699" stroke="#006699" cx="197.24" cy="-596.19" rx="90.52" ry="90.52"/>
<text text-anchor="middle" x="197.24" y="-592.49" font-family="Helvetica,sans-Serif" font-size="14.00" fill="white">INTERNET</text>
</g>
<!-- R3 -->
<g id="node2" class="node">
<title>R3</title>
<ellipse fill="#006699" stroke="#006699" cx="197.24" cy="-400.24" rx="54.39" ry="54.39"/>
<text text-anchor="middle" x="197.24" y="-396.54" font-family="Helvetica,sans-Serif" font-size="14.00" fill="white">R3</text>
</g>
<!-- R3&#45;&#45;INTERNET -->
<g id="edge6" class="edge">
<title>R3&#45;&#45;INTERNET</title>
<path fill="none" stroke="green" stroke-dasharray="5,2" d="M197.24,-454.75C197.24,-470.45 197.24,-488.06 197.24,-505.37"/>
<text text-anchor="middle" x="247.24" y="-476.48" font-family="Courier,monospace" font-size="14.00" fill="white"> &#160;&#160;&#160;&#160;&#160;&#160;&#160;&#160;&#160;&#160;&#160;</text>
<text text-anchor="middle" x="122.74" y="-494.17" font-family="Courier,monospace" font-size="14.00" fill="white">GigabitEthernet0/3</text>
<text text-anchor="middle" x="122.74" y="-458.55" font-family="Courier,monospace" font-size="14.00" fill="white">GigabitEthernet0/0</text>
</g>
<!-- R2 -->
<g id="node3" class="node">
<title>R2</title>
<ellipse fill="#006699" stroke="#006699" cx="353.24" cy="-240.34" rx="54.39" ry="54.39"/>
<text text-anchor="middle" x="353.24" y="-236.64" font-family="Helvetica,sans-Serif" font-size="14.00" fill="white">R2</text>
</g>
<!-- R2&#45;&#45;INTERNET -->
<g id="edge4" class="edge">
<title>R2&#45;&#45;INTERNET</title>
<path fill="none" stroke="green" stroke-dasharray="5,2" d="M350.46,-295.19C345.86,-347.15 333.65,-426.7 301.24,-487.68 291.98,-505.11 279.05,-521.67 265.45,-536.33"/>
<text text-anchor="middle" x="393.24" y="-396.54" font-family="Courier,monospace" font-size="14.00" fill="white"> &#160;&#160;&#160;&#160;&#160;&#160;&#160;&#160;&#160;&#160;&#160;</text>
<text text-anchor="middle" x="339.95" y="-525.13" font-family="Courier,monospace" font-size="14.00" fill="white">GigabitEthernet0/2</text>
<text text-anchor="middle" x="275.96" y="-298.99" font-family="Courier,monospace" font-size="14.00" fill="white">GigabitEthernet0/0</text>
</g>
<!-- R2&#45;&#45;R3 -->
<g id="edge5" class="edge">
<title>R2&#45;&#45;R3</title>
<path fill="none" stroke="green" stroke-dasharray="5,2" d="M312.69,-276.73C304,-283.29 294.6,-289.68 285.24,-294.79 263.77,-306.51 251.06,-296.03 233.24,-312.79 223.29,-322.14 216,-334.67 210.68,-347.27"/>
<text text-anchor="middle" x="283.24" y="-316.59" font-family="Courier,monospace" font-size="14.00" fill="white"> &#160;&#160;&#160;&#160;&#160;&#160;&#160;&#160;&#160;&#160;&#160;</text>
<text text-anchor="middle" x="285.18" y="-336.07" font-family="Courier,monospace" font-size="14.00" fill="white">GigabitEthernet0/1</text>
<text text-anchor="middle" x="238.19" y="-265.53" font-family="Courier,monospace" font-size="14.00" fill="white">GigabitEthernet0/2</text>
</g>
<!-- R1 -->
<g id="node4" class="node">
<title>R1</title>
<ellipse fill="#006699" stroke="#006699" cx="181.24" cy="-80.45" rx="54.39" ry="54.39"/>
<text text-anchor="middle" x="181.24" y="-76.75" font-family="Helvetica,sans-Serif" font-size="14.00" fill="white">R1</text>
</g>
<!-- R1&#45;&#45;INTERNET -->
<g id="edge1" class="edge">
<title>R1&#45;&#45;INTERNET</title>
<path fill="none" stroke="green" stroke-dasharray="5,2" d="M149,-124.52C116.82,-172.6 73.91,-253.44 87.24,-327.79 99.13,-394.12 128.8,-464.42 154.33,-516.29"/>
<text text-anchor="middle" x="137.24" y="-316.59" font-family="Courier,monospace" font-size="14.00" fill="white"> &#160;&#160;&#160;&#160;&#160;&#160;&#160;&#160;&#160;&#160;&#160;</text>
<text text-anchor="middle" x="79.83" y="-520.09" font-family="Courier,monospace" font-size="14.00" fill="white">GigabitEthernet0/1</text>
<text text-anchor="middle" x="74.5" y="-128.32" font-family="Courier,monospace" font-size="14.00" fill="white">GigabitEthernet0/0</text>
</g>
<!-- R1&#45;&#45;R3 -->
<g id="edge3" class="edge">
<title>R1&#45;&#45;R3</title>
<path fill="none" stroke="green" stroke-dasharray="5,2" d="M183.13,-134.95C184.74,-178.11 187.27,-240.37 190.24,-294.79 191.15,-311.39 192.3,-329.47 193.41,-345.85"/>
<text text-anchor="middle" x="240.24" y="-236.64" font-family="Courier,monospace" font-size="14.00" fill="white"> &#160;&#160;&#160;&#160;&#160;&#160;&#160;&#160;&#160;&#160;&#160;</text>
<text text-anchor="middle" x="118.91" y="-334.65" font-family="Courier,monospace" font-size="14.00" fill="white">GigabitEthernet0/2</text>
<text text-anchor="middle" x="257.63" y="-138.75" font-family="Courier,monospace" font-size="14.00" fill="white">GigabitEthernet0/2</text>
</g>
<!-- R1&#45;&#45;R2 -->
<g id="edge2" class="edge">
<title>R1&#45;&#45;R2</title>
<path fill="none" stroke="green" stroke-dasharray="5,2" d="M221.13,-118.07C248.92,-143.58 285.82,-177.45 313.56,-202.92"/>
<text text-anchor="middle" x="322.24" y="-156.69" font-family="Courier,monospace" font-size="14.00" fill="white"> &#160;&#160;&#160;&#160;&#160;&#160;&#160;&#160;&#160;&#160;&#160;</text>
<text text-anchor="middle" x="239.06" y="-191.72" font-family="Courier,monospace" font-size="14.00" fill="white">GigabitEthernet0/1</text>
<text text-anchor="middle" x="295.63" y="-106.87" font-family="Courier,monospace" font-size="14.00" fill="white">GigabitEthernet0/1</text>
</g>
</g>
</svg>
