<?xml version="1.0" encoding="UTF-8" standalone="no"?>
<!DOCTYPE svg PUBLIC "-//W3C//DTD SVG 1.1//EN"
 "http://www.w3.org/Graphics/SVG/1.1/DTD/svg11.dtd">
<!-- Generated by graphviz version 2.43.0 (0)
 -->
<!-- Title: %3 Pages: 1 -->
<svg width="475pt" height="695pt"
 viewBox="0.00 0.00 474.80 694.70" xmlns="http://www.w3.org/2000/svg" xmlns:xlink="http://www.w3.org/1999/xlink">
<g id="graph0" class="graph" transform="scale(1 1) rotate(0) translate(4 690.7)">
<title>%3</title>
<polygon fill="#3f3f3f" stroke="transparent" points="-4,4 -4,-690.7 470.8,-690.7 470.8,4 -4,4"/>
<text text-anchor="middle" x="233.4" y="-9.2" font-family="Times,serif" font-size="16.00" fill="white">Network Map</text>
<!-- INTERNET -->
<g id="node1" class="node">
<title>INTERNET</title>
<ellipse fill="#006699" stroke="#006699" cx="196.8" cy="-596.19" rx="90.52" ry="90.52"/>
<text text-anchor="middle" x="196.8" y="-592.49" font-family="Helvetica,sans-Serif" font-size="14.00" fill="white">INTERNET</text>
</g>
<!-- R1 -->
<g id="node2" class="node">
<title>R1</title>
<ellipse fill="#006699" stroke="#006699" cx="218.8" cy="-80.45" rx="54.39" ry="54.39"/>
<text text-anchor="middle" x="218.8" y="-76.75" font-family="Helvetica,sans-Serif" font-size="14.00" fill="white">R1</text>
</g>
<!-- R1&#45;&#45;INTERNET -->
<g id="edge1" class="edge">
<title>R1&#45;&#45;INTERNET</title>
<path fill="none" stroke="green" stroke-dasharray="5,2" d="M187.99,-125.36C158.86,-170.07 117.62,-242.6 103.8,-312.79 89.71,-384.33 119.48,-462.89 149,-518.96"/>
<text text-anchor="middle" x="153.8" y="-316.59" font-family="Courier,monospace" font-size="14.00" fill="white"> &#160;&#160;&#160;&#160;&#160;&#160;&#160;&#160;&#160;&#160;&#160;</text>
<text text-anchor="middle" x="74.5" y="-507.76" font-family="Courier,monospace" font-size="14.00" fill="white">GigabitEthernet0/1</text>
<text text-anchor="middle" x="113.49" y="-129.16" font-family="Courier,monospace" font-size="14.00" fill="white">GigabitEthernet0/0</text>
</g>
<!-- R2 -->
<g id="node3" class="node">
<title>R2</title>
<ellipse fill="#006699" stroke="#006699" cx="218.8" cy="-240.34" rx="54.39" ry="54.39"/>
<text text-anchor="middle" x="218.8" y="-236.64" font-family="Helvetica,sans-Serif" font-size="14.00" fill="white">R2</text>
</g>
<!-- R1&#45;&#45;R2 -->
<g id="edge2" class="edge">
<title>R1&#45;&#45;R2</title>
<path fill="none" stroke="green" stroke-dasharray="5,2" d="M218.8,-134.9C218.8,-151.28 218.8,-169.29 218.8,-185.67"/>
<text text-anchor="middle" x="268.8" y="-156.69" font-family="Courier,monospace" font-size="14.00" fill="white"> &#160;&#160;&#160;&#160;&#160;&#160;&#160;&#160;&#160;&#160;&#160;</text>
<text text-anchor="middle" x="144.3" y="-174.47" font-family="Courier,monospace" font-size="14.00" fill="white">GigabitEthernet0/1</text>
<text text-anchor="middle" x="293.3" y="-138.7" font-family="Courier,monospace" font-size="14.00" fill="white">GigabitEthernet0/1</text>
</g>
<!-- R3 -->
<g id="node4" class="node">
<title>R3</title>
<ellipse fill="#006699" stroke="#006699" cx="368.8" cy="-400.24" rx="54.39" ry="54.39"/>
<text text-anchor="middle" x="368.8" y="-396.54" font-family="Helvetica,sans-Serif" font-size="14.00" fill="white">R3</text>
</g>
<!-- R1&#45;&#45;R3 -->
<g id="edge3" class="edge">
<title>R1&#45;&#45;R3</title>
<path fill="none" stroke="green" stroke-dasharray="5,2" d="M267.8,-104.31C287.84,-116.08 309.42,-132.33 322.8,-152.89 360.64,-211.06 369.18,-292.38 370.25,-345.41"/>
<text text-anchor="middle" x="416.8" y="-236.64" font-family="Courier,monospace" font-size="14.00" fill="white"> &#160;&#160;&#160;&#160;&#160;&#160;&#160;&#160;&#160;&#160;&#160;</text>
<text text-anchor="middle" x="295.75" y="-334.21" font-family="Courier,monospace" font-size="14.00" fill="white">GigabitEthernet0/2</text>
<text text-anchor="middle" x="342.3" y="-93.11" font-family="Courier,monospace" font-size="14.00" fill="white">GigabitEthernet0/2</text>
</g>
<!-- R2&#45;&#45;INTERNET -->
<g id="edge4" class="edge">
<title>R2&#45;&#45;INTERNET</title>
<path fill="none" stroke="green" stroke-dasharray="5,2" d="M211.28,-294.38C209.2,-310.83 207.14,-329.03 205.8,-345.79 201.56,-398.7 199.32,-458.08 198.13,-505.62"/>
<text text-anchor="middle" x="255.8" y="-396.54" font-family="Courier,monospace" font-size="14.00" fill="white"> &#160;&#160;&#160;&#160;&#160;&#160;&#160;&#160;&#160;&#160;&#160;</text>
<text text-anchor="middle" x="272.63" y="-494.42" font-family="Courier,monospace" font-size="14.00" fill="white">GigabitEthernet0/2</text>
<text text-anchor="middle" x="136.78" y="-298.18" font-family="Courier,monospace" font-size="14.00" fill="white">GigabitEthernet0/0</text>
</g>
<!-- R2&#45;&#45;R3 -->
<g id="edge5" class="edge">
<title>R2&#45;&#45;R3</title>
<path fill="none" stroke="green" stroke-dasharray="5,2" d="M228.76,-294.1C233.19,-306.4 239.58,-318.58 248.8,-327.79 266.1,-345.08 279.33,-334.07 300.8,-345.79 310.16,-350.9 319.55,-357.28 328.25,-363.85"/>
<text text-anchor="middle" x="298.8" y="-316.59" font-family="Courier,monospace" font-size="14.00" fill="white"> &#160;&#160;&#160;&#160;&#160;&#160;&#160;&#160;&#160;&#160;&#160;</text>
<text text-anchor="middle" x="253.75" y="-352.65" font-family="Courier,monospace" font-size="14.00" fill="white">GigabitEthernet0/1</text>
<text text-anchor="middle" x="303.26" y="-297.9" font-family="Courier,monospace" font-size="14.00" fill="white">GigabitEthernet0/2</text>
</g>
<!-- R3&#45;&#45;INTERNET -->
<g id="edge6" class="edge">
<title>R3&#45;&#45;INTERNET</title>
<path fill="none" stroke="green" stroke-dasharray="5,2" d="M333.16,-441.42C311.02,-466.39 282,-499.11 256.43,-527.95"/>
<text text-anchor="middle" x="352.8" y="-476.48" font-family="Courier,monospace" font-size="14.00" fill="white"> &#160;&#160;&#160;&#160;&#160;&#160;&#160;&#160;&#160;&#160;&#160;</text>
<text text-anchor="middle" x="330.93" y="-516.75" font-family="Courier,monospace" font-size="14.00" fill="white">GigabitEthernet0/3</text>
<text text-anchor="middle" x="258.66" y="-445.22" font-family="Courier,monospace" font-size="14.00" fill="white">GigabitEthernet0/0</text>
</g>
</g>
</svg>
